<svg xmlns="http://www.w3.org/2000/svg" viewBox="0 0 200 120" role="img" aria-labelledby="sce_c_title">
  <title id="sce_c_title">Scenario C: Relay Phone to Laptop Handoff</title>
  <style>
    .device { fill: #eaeaec; stroke: #d3d3d8; stroke-width: 2; rx: 4; }
    .screen { fill: #ffffff; }
    .body { fill: #f0d0c8; }
    .shadow { fill: #e0b8ae; }
    .accent { stroke: #01696f; fill: none; stroke-linecap: round; stroke-linejoin: round; stroke-width: 2; }
    .accent-fill { fill: #01696f; }
    .eyes { fill: #28251d; }
    .smile { stroke: #28251d; fill: none; stroke-linecap: round; stroke-width: 2; }
    .anthropic { fill: #d48872; }
    
    @media (prefers-color-scheme: dark) {
      .device { fill: #2a2a2c; stroke: #3a3a3c; }
      .screen { fill: #1c1b19; }
      .body { fill: #c4a090; }
      .shadow { fill: #9d7b6e; }
      .accent { stroke: #4f98a3; }
      .accent-fill { fill: #4f98a3; }
      .eyes { fill: #1c1b18; }
    }

    @keyframes ax-pack { 0%, 15% { transform: scale(1); opacity: 1; } 25%, 100% { transform: scale(0); opacity: 0; } }
    @keyframes ax-unpack { 0%, 55% { transform: scale(0); opacity: 0; } 65%, 90% { transform: scale(1); opacity: 1; } 100% { transform: scale(1); opacity: 0; } }
    
    /* BLE proximity waves going left-to-right from Phone to Laptop */
    @keyframes ble-wave {
      0%, 20% { transform: translateX(0px) scale(0.5); opacity: 0; stroke-width: 0; }
      25% { opacity: 1; stroke-width: 3; }
      55% { transform: translateX(70px) scale(3); opacity: 0; stroke-width: 1; }
      100% { transform: translateX(70px) scale(3); opacity: 0; }
    }

    .anim-pack { animation: ax-pack 4s cubic-bezier(0.4, 0, 0.2, 1) infinite; }
    .anim-unpack { animation: ax-unpack 4s cubic-bezier(0.1, 0.5, 0.2, 1.2) infinite; }
    
    .anim-ble-1 { animation: ble-wave 4s ease-out infinite 0s; transform-origin: center; }
    .anim-ble-2 { animation: ble-wave 4s ease-out infinite 0.2s; transform-origin: center; }
    .anim-ble-3 { animation: ble-wave 4s ease-out infinite 0.4s; transform-origin: center; }
  </style>

  <defs>
    <g id="mini-session-axoltl" transform="scale(0.35)">
      <ellipse cx="60" cy="98" rx="28" ry="6" class="shadow" opacity="0.4" />
      <path d="M 80,60 C 115,40 120,85 85,85 Z" class="shadow" />
      <rect x="35" y="82" width="10" height="12" rx="5" class="shadow" />
      <rect x="75" y="82" width="10" height="12" rx="5" class="shadow" />
      <ellipse cx="60" cy="65" rx="38" ry="28" class="body" />
      <rect x="42" y="86" width="12" height="15" rx="6" class="body" transform="rotate(15 48 93)"/>
      <rect x="66" y="86" width="12" height="13" rx="6" class="body" />
      <g transform="translate(43, 98)"><circle cx="0" cy="0" r="14" class="accent-fill" opacity="0.4" /><circle cx="0" cy="0" r="5" class="accent-fill" /></g>
      <g transform="translate(0, 3)"><ellipse cx="40" cy="60" rx="4.5" ry="2.5" class="shadow" opacity="0.75" /><ellipse cx="80" cy="60" rx="4.5" ry="2.5" class="shadow" opacity="0.75" /><circle cx="48" cy="55" r="5.5" class="eyes" /><circle cx="72" cy="55" r="5.5" class="eyes" /><circle cx="50" cy="53" r="1.8" fill="#ffffff" /><circle cx="74" cy="53" r="1.8" fill="#ffffff" /><path d="M 54,63 Q 60,69 66,63" class="smile" /></g>
    </g>
    <path id="ble-segment" d="M 0,-10 A 10,10 0 0,1 0,10" class="accent" />
    <g id="logo-claude" transform="scale(0.8)"><circle cx="0" cy="0" r="8" class="anthropic"/><path d="M-2,2 Q0,-2 2,2 M-1,-1 L1,-1" stroke="#fff" fill="none" stroke-width="1.5"/></g>
  </defs>

  <!-- Left: Phone -->
  <rect x="15" y="25" width="40" height="70" class="device" />
  <rect x="18" y="28" width="34" height="64" rx="2" class="screen" />
  <!-- Generic AI logo placeholder on phone -->
  <circle cx="35" cy="40" r="6" fill="#e0e0e0" />

  <!-- Center: BLE Proximity Ripples Radiating Right -->
  <g transform="translate(50, 55)">
    <use href="#ble-segment" class="anim-ble-1" />
    <use href="#ble-segment" class="anim-ble-2" />
    <use href="#ble-segment" class="anim-ble-3" />
  </g>

  <!-- Right: Laptop -->
  <rect x="115" y="30" width="70" height="45" class="device" />
  <rect x="118" y="33" width="64" height="39" rx="1" class="screen" />
  <path d="M 110,75 L 185,75 L 190,80 L 105,80 Z" class="device" fill="#d3d3d8" />
  <!-- Claude Logo on Laptop -->
  <use href="#logo-claude" x="130" y="45" />

  <!-- Left Phone Axoltl -->
  <g transform="translate(18, 48)">
    <g class="anim-pack" style="transform-origin: 21px 22px;">
      <use href="#mini-session-axoltl" />
    </g>
  </g>

  <!-- Right Laptop Axoltl -->
  <g transform="translate(130, 40)">
    <g class="anim-unpack" style="transform-origin: 21px 22px;">
      <use href="#mini-session-axoltl" />
    </g>
  </g>

</svg>
